<?xml version="1.0" encoding="UTF-8"?><svg id="a" xmlns="http://www.w3.org/2000/svg" viewBox="0 0 726.61 143.68"><defs><style>.b{fill:#ec2227;}.c{fill:#1172ba;}.d{fill:#faed24;}.e{fill:#8dc641;}.f{fill:none;}.g{fill:#932a8e;}.h{fill:#f79421;}.i{fill:#231f20;}.j{fill:#1c75bc;}</style></defs><path class="i" d="M249.05,113.68h-20.6V46.61c0-2.55-1.17-3.83-3.51-3.83s-3.58,1.23-3.58,3.69V113.68h-20.6V46.47c0-2.55-1.17-3.83-3.51-3.83s-3.58,1.23-3.58,3.69V113.68h-20.6V29.77h20.6v2.96c2.84-2.36,7.1-3.54,12.79-3.54,4.77,0,9.1,1.9,13.01,5.71,3.61-3.81,8.55-5.71,14.82-5.71,3.57,0,6.92,1.07,10.05,3.22,3.13,2.14,4.7,5.12,4.7,8.93V113.68Z"/><path class="i" d="M257.31,79.93h20.6v17.78c0,2.84,1.16,4.26,3.47,4.26s3.47-2.72,3.47-8.17c0-7.08-1.42-11.66-4.26-13.73-10.75-5.64-17.23-9.58-19.44-11.82-2.22-2.24-3.32-5.6-3.32-10.08v-11.28c0-11.8,8-17.71,24-17.71s23.35,5.66,23.35,16.99v16.55h-20.09l.43-10.05c0-6.99-1.28-10.48-3.83-10.48s-3.83,2.19-3.83,6.58,.57,7.95,1.7,10.26c1.13,2.31,7.43,6.29,18.9,11.93,4.77,3.42,7.16,7.95,7.16,13.59v12.58c0,11.81-8.13,17.71-24.39,17.71s-23.89-5.66-23.89-16.98v-17.92Z"/><path class="j" d="M313.41,79.93h20.6v17.78c0,2.84,1.16,4.26,3.47,4.26s3.47-2.72,3.47-8.17c0-7.08-1.42-11.66-4.26-13.73-10.75-5.64-17.23-9.58-19.44-11.82-2.22-2.24-3.32-5.6-3.32-10.08v-11.28c0-11.8,8-17.71,24-17.71s23.35,5.66,23.35,16.99v16.55h-20.09l.43-10.05c0-6.99-1.28-10.48-3.83-10.48s-3.83,2.19-3.83,6.58,.57,7.95,1.7,10.26c1.13,2.31,7.43,6.29,18.9,11.93,4.77,3.42,7.16,7.95,7.16,13.59v12.58c0,11.81-8.13,17.71-24.39,17.71s-23.89-5.66-23.89-16.98v-17.92Z"/><path class="j" d="M390.11,111.73v19.73h-20.6V29.77h15.59l1.74,3.4c3.38-2.65,7.39-3.98,12.03-3.98s9.02,1.18,13.01,3.54c3.99,2.36,5.98,5.76,5.98,10.19v60.28c0,3.52-1.45,6.34-4.35,8.46-2.9,2.12-6.43,3.18-10.58,3.18-5.75,0-10.03-1.04-12.83-3.11Zm7.16-13.73V46.03c0-2.55-1.18-3.83-3.54-3.83s-3.61,1.28-3.61,3.83v52.11c0,2.46,1.2,3.69,3.61,3.69s3.54-1.28,3.54-3.83Z"/><path class="j" d="M474.25,78.12h-27.61v19.59c0,2.84,1.18,4.26,3.54,4.26s3.47-1.42,3.47-4.26v-16.91h20.6v17.06c0,11.32-8.07,16.98-24.21,16.98s-24-5.9-24-17.71V46.9c0-11.8,8-17.71,24-17.71s24.21,5.66,24.21,16.99v31.95Zm-20.6-12.58v-19.23c0-2.75-1.16-4.12-3.47-4.12s-3.54,1.37-3.54,4.12v19.23h7.01Z"/><path class="j" d="M540.11,113.68h-24.24l-12.55-30.31v30.31h-20.6V10.04h20.6V56.57l10.5-26.8h21.3l-14.92,36.72,19.91,47.2Z"/><path class="j" d="M642.15,64.54h-20.6v-18.21c0-2.55-1.18-3.83-3.54-3.83s-3.54,1.23-3.54,3.69V113.68h-20.6V29.77h20.6v2.82c2.75-2.26,6.99-3.4,12.72-3.4,4.09,0,7.61,1.1,10.55,3.29,2.94,2.19,4.41,5.07,4.41,8.64v23.42Z"/><path class="j" d="M697.32,113.68h-18.21v-3.25c-1.54,2.94-5.95,4.41-13.23,4.41-11.23,0-16.84-4.38-16.84-13.15v-16.84c0-3.76,1.36-7.03,4.08-9.83,2.72-2.79,8.2-6.29,16.44-10.48,4.77-2.41,7.16-4.34,7.16-5.78v-12.43c0-2.75-1.18-4.12-3.54-4.12-2.7,0-4.05,3.35-4.05,10.05,0,1.21,.07,2.99,.22,5.35,.19,2.36,.29,4.14,.29,5.35h-19.88v-16.77c0-11.32,8.19-16.99,24.57-16.99,15.32,0,22.98,5.9,22.98,17.71V113.68Zm-20.6-15.68v-21.61c-4.72,1.16-7.08,3.28-7.08,6.36v15.25c0,2.55,1.23,3.83,3.69,3.83,2.26,0,3.4-1.28,3.4-3.83Z"/><path class="j" d="M726.61,113.68h-20.6V10.04h20.6V113.68Z"/><path class="i" d="M113.81,71.84c0,23.17-18.77,41.94-41.94,41.94s-41.94-18.77-41.94-41.94S48.7,29.9,71.87,29.9c7.15,0,13.89,1.8,19.79,4.96-.17-.02-.35-.02-.52-.02-9.52,0-17.27,7.72-17.27,17.27s7.75,17.27,17.27,17.27,17.27-7.72,17.27-17.27c0-.32,0-.64-.05-.94,3.48,6.09,5.45,13.15,5.45,20.67Z"/><path class="f" d="M80.89,.59l15.96,28.72c11.72,6.86,20.33,18.45,23.24,32.17l13.94-25.66C123.06,16.85,103.62,3.4,80.89,.59Zm57.19,43.3l-17,31.28v.02c-.84,12.75-6.54,24.18-15.27,32.42h28.35c6.09-10.53,9.57-22.75,9.57-35.77,0-9.92-2.02-19.37-5.65-27.95ZM46.63,114.22h-.02c-11.6-6.91-20.11-18.43-22.99-32.05l-14.11,25.31c10.9,19.1,30.34,32.69,53.14,35.57l-16.01-28.84Zm-8.91-77.96H9.45C3.43,46.75,0,58.89,0,71.84c0,9.77,1.95,19.1,5.5,27.61l17.12-30.69c.79-12.78,6.41-24.2,15.1-32.49Zm58.03,78.75c-7.06,3.95-15.22,6.17-23.88,6.17-4.88,0-9.62-.72-14.06-2.05l13.64,24.55h.42c23.49,0,44.33-11.25,57.43-28.67h-33.55ZM72.11,0h-.25C48.31,0,27.38,11.35,14.28,28.86H47.64c7.15-4.07,15.39-6.36,24.23-6.36,4.81,0,9.45,.69,13.84,1.97L72.11,0Z"/><path class="d" d="M97,29.31,72.26,0h-.25C48.45,0,27.53,11.35,14.43,28.86H47.78c7.15-4.07,15.39-6.36,24.23-6.36,4.81,0,9.45,.69,13.84,1.97L72.26,0Z"/><path class="h" d="M80.97,.61l15.96,28.72c11.72,6.86,20.33,18.45,23.24,32.17l13.94-25.66C123.13,16.87,103.69,3.43,80.97,.61Z"/><path class="b" d="M138.08,43.81l-17,31.28v.02c-.84,12.75-6.54,24.18-15.27,32.42h28.35c6.09-10.53,9.57-22.75,9.57-35.77,0-9.92-2.02-19.37-5.65-27.95Z"/><path class="e" d="M37.72,36.27H9.45C3.43,46.75,0,58.89,0,71.84c0,9.77,1.95,19.1,5.5,27.61l17.12-30.69c.79-12.78,6.41-24.2,15.1-32.49Z"/><path class="c" d="M46.58,114.22h-.02c-11.6-6.91-20.11-18.43-22.99-32.05l-14.11,25.31c10.9,19.1,30.34,32.69,53.14,35.57l-16.01-28.84Z"/><path class="g" d="M95.74,115.01c-7.06,3.95-15.22,6.17-23.88,6.17-4.88,0-9.62-.72-14.06-2.05l13.64,24.55h.42c23.49,0,44.33-11.25,57.43-28.67h-33.55Z"/><path class="j" d="M585.87,113.68h-15.38c-9.3,0-14.87-1.4-16.7-4.19-1.83-2.79-2.75-8.17-2.75-16.12V42.2h-13.39v-12.43h13.39V10.04h20.6V29.77h14.23v12.43h-14.23v51.03c0,2.46,.73,4.11,2.2,4.95,1.47,.84,7.06,1.38,12.02,1.38v14.12Z"/></svg>