<?xml version="1.0" encoding="UTF-8" standalone="no"?>
<!-- Created with Inkscape (http://www.inkscape.org/) -->

<svg
   width="38.031212mm"
   height="38.017982mm"
   viewBox="0 0 38.031212 38.017982"
   version="1.1"
   id="svg1"
   xmlns:inkscape="http://www.inkscape.org/namespaces/inkscape"
   xmlns:sodipodi="http://sodipodi.sourceforge.net/DTD/sodipodi-0.dtd"
   xmlns="http://www.w3.org/2000/svg"
   xmlns:svg="http://www.w3.org/2000/svg">
  <sodipodi:namedview
     id="namedview1"
     pagecolor="#ffffff"
     bordercolor="#000000"
     borderopacity="0.25"
     inkscape:showpageshadow="2"
     inkscape:pageopacity="0.0"
     inkscape:pagecheckerboard="0"
     inkscape:deskcolor="#d1d1d1"
     inkscape:document-units="mm">
    <inkscape:page
       x="0"
       y="0"
       width="38.031212"
       height="38.017982"
       id="page2"
       margin="0"
       bleed="0" />
  </sodipodi:namedview>
  <defs
     id="defs1" />
  <g
     inkscape:label="Katman 1"
     inkscape:groupmode="layer"
     id="layer1"
     transform="translate(-82.951695,-53.266326)">
    <g
       id="g1"
       inkscape:export-filename="g1.png"
       inkscape:export-xdpi="85.487671"
       inkscape:export-ydpi="85.487671">
      <path
         class="o"
         d="m 113.06393,72.273989 c 0,6.130396 -4.96623,11.096625 -11.09662,11.096625 -6.130403,0 -11.096633,-4.966229 -11.096633,-11.096625 0,-6.130396 4.96623,-11.096625 11.096633,-11.096625 1.89177,0 3.67506,0.47625 5.2361,1.312333 -0.045,-0.0053 -0.0926,-0.0053 -0.13758,-0.0053 -2.51884,0 -4.56936,2.042583 -4.56936,4.569354 0,2.52677 2.05052,4.569354 4.56936,4.569354 2.51883,0 4.56935,-2.042584 4.56935,-4.569354 0,-0.08467 0,-0.169334 -0.0132,-0.248709 0.92075,1.611313 1.44198,3.479271 1.44198,5.468938 z"
         id="path82"
         style="fill:#2b2523;stroke-width:0.264583" />
      <path
         class="m"
         d="m 104.35649,53.422426 4.22275,7.598834 c 3.10092,1.815041 5.37898,4.881562 6.14892,8.511645 l 3.68829,-6.789208 c -2.90512,-5.019146 -8.04862,-8.577792 -14.05996,-9.321271 z m 15.13152,11.456459 -4.49791,8.276166 v 0.0053 c -0.22225,3.373437 -1.73038,6.397625 -4.04019,8.577791 h 7.50094 c 1.61131,-2.786062 2.53206,-6.01927 2.53206,-9.464145 0,-2.624667 -0.53446,-5.124979 -1.4949,-7.395104 z M 95.291867,83.489676 h -0.005 c -3.06946,-1.828271 -5.32106,-4.876271 -6.08306,-8.479896 l -3.73327,6.696604 c 2.88395,5.053542 8.02745,8.64923 14.05995,9.41123 L 95.294507,83.48703 Z M 92.934427,62.86276 h -7.47977 c -1.59279,2.775479 -2.50031,5.984875 -2.50031,9.413875 0,2.584979 0.51594,5.053541 1.45521,7.305145 l 4.52966,-8.120062 c 0.20902,-3.381375 1.69598,-6.402917 3.99521,-8.596312 z M 108.2882,83.698697 c -1.86796,1.045104 -4.02696,1.632479 -6.31825,1.632479 -1.29116,0 -2.545293,-0.1905 -3.720043,-0.542396 l 3.608923,6.495521 h 0.11112 c 6.21506,0 11.72898,-2.976562 15.19502,-7.585604 z m -6.25475,-30.432375 h -0.0661 c -6.233593,0 -11.768673,3.003021 -15.234713,7.635875 h 8.82385 c 1.89177,-1.076854 4.07194,-1.68275 6.410863,-1.68275 1.27264,0 2.50031,0.182563 3.66183,0.521229 z"
         id="path83"
         style="fill:none;stroke-width:0.264583" />
      <path
         class="n"
         d="m 108.61629,61.02126 -6.5458,-7.754938 h -0.0661 c -6.233593,0 -11.768673,3.003021 -15.234713,7.635875 h 8.82385 c 1.89177,-1.076854 4.07194,-1.68275 6.410863,-1.68275 1.27264,0 2.50031,0.182563 3.66183,0.521229 l -3.59569,-6.474354 z"
         id="path84"
         style="fill:#fdea00;stroke-width:0.264583" />
      <path
         class="f"
         d="m 104.37766,53.427718 4.22275,7.598833 c 3.10092,1.815042 5.37898,4.881563 6.14892,8.511646 l 3.68829,-6.789208 c -2.90513,-5.019146 -8.04863,-8.577792 -14.05996,-9.321271 z"
         id="path85"
         style="fill:#f39200;stroke-width:0.264583" />
      <path
         class="s"
         d="m 119.48801,64.857718 -4.49791,8.276167 v 0.0053 c -0.22225,3.373438 -1.73038,6.397625 -4.04019,8.577792 h 7.50094 c 1.61131,-2.786063 2.53206,-6.019271 2.53206,-9.464146 0,-2.624667 -0.53446,-5.124979 -1.4949,-7.395104 z"
         id="path86"
         style="fill:#e31019;stroke-width:0.264583" />
      <path
         class="q"
         d="m 92.931787,62.86276 h -7.47978 c -1.59279,2.775479 -2.50031,5.984875 -2.50031,9.413875 0,2.584979 0.51594,5.053541 1.45521,7.305145 l 4.52967,-8.120062 c 0.20902,-3.381375 1.69598,-6.402917 3.99521,-8.596312 z"
         id="path87"
         style="fill:#95c124;stroke-width:0.264583" />
      <path
         class="l"
         d="m 95.278637,83.48703 h -0.005 c -3.06917,-1.828271 -5.32077,-4.87627 -6.08277,-8.479895 l -3.73327,6.696604 c 2.88395,5.053541 8.02745,8.649229 14.05995,9.411229 l -4.23597,-7.630584 z"
         id="path88"
         style="fill:#146cb5;stroke-width:0.264583" />
      <path
         class="p"
         d="m 108.28291,83.696051 c -1.86796,1.045104 -4.02696,1.632479 -6.31825,1.632479 -1.29117,0 -2.545293,-0.1905 -3.720043,-0.542396 l 3.608923,6.495521 h 0.11112 c 6.21506,0 11.72898,-2.976562 15.19502,-7.585604 z"
         id="path89"
         style="fill:#971f81;stroke-width:0.264583" />
    </g>
  </g>
</svg>
